<?xml version="1.0" encoding="utf-8"?>
<!DOCTYPE svg PUBLIC "-//W3C//DTD SVG 1.1//EN" "http://www.w3.org/Graphics/SVG/1.1/DTD/svg11.dtd">
<svg version="1.1" id="Calque_1" xmlns="http://www.w3.org/2000/svg" xmlns:xlink="http://www.w3.org/1999/xlink" x="0px" y="0px"
   width="813.191px" height="284.482px" viewBox="0 -20 813.191 324.482" enable-background="new 0 0 813.191 284.482"
   xml:space="preserve">
<path fill="#444444" d="M561.992,150.485c-2.799-3.4-6.299-6.066-10.5-8c-4.199-1.934-8.73-3.434-13.6-4.5
  c-4.869-1.065-9.4-2.102-13.6-3.102c-4.201-1-7.701-2.266-10.5-3.801c-2.801-1.531-4.201-3.83-4.201-6.899
  c0-1.601,0.531-3.101,1.602-4.5c1.064-1.397,2.465-2.665,4.199-3.8c1.73-1.131,3.766-2,6.1-2.6c2.332-0.603,4.701-0.9,7.104-0.9
  c4.266,0,8.432,0.436,12.5,1.3c1.6,0.344,3.215,0.838,4.844,1.479l13.803-11.129c-4.188-2.471-8.801-4.287-13.846-5.448
  c-5.803-1.33-11.303-2-16.5-2c-5.068,0-9.902,0.734-14.514,2.201c-4.604,1.469-8.658,3.5-12.166,6.1
  c-3.506,2.602-6.303,5.602-8.391,9c-2.09,3.4-3.133,7.034-3.133,10.9c0,5.6,1.398,10.066,4.199,13.397c2.801,3.335,6.301,6,10.5,8
  s8.73,3.533,13.6,4.604c4.865,1.064,9.4,2.1,13.6,3.1c4.201,1,7.701,2.234,10.5,3.699c2.805,1.469,4.201,3.6,4.201,6.4
  c0,2.27-0.564,4.301-1.701,6.1c-1.133,1.801-2.668,3.301-4.6,4.5c-1.934,1.201-4.1,2.135-6.5,2.801c-2.4,0.668-4.869,1-7.4,1
  c-4.668,0-9.299-0.701-13.895-2.1c-2.068-0.631-4.301-1.396-6.68-2.279l-14.084,11.355c11.023,5.883,22.111,8.82,33.264,8.82
  c5.199,0,10.164-0.635,14.895-1.896c4.734-1.268,8.992-3.166,12.77-5.701c3.771-2.531,6.77-5.666,8.998-9.398
  c2.225-3.732,3.338-8.066,3.338-13C566.193,158.454,564.792,153.884,561.992,150.485z"/>
<path fill="#444444" d="M94.305,160.085c-2.463,5.936-5.888,11.1-10.278,15.5c-4.396,4.4-9.582,7.834-15.569,10.301
  c-5.987,2.465-12.44,3.699-19.359,3.699s-13.375-1.234-19.362-3.699c-5.988-2.467-11.178-5.9-15.569-10.301
  c-4.391-4.4-7.85-9.564-10.378-15.5c-2.528-5.932-3.791-12.365-3.791-19.299c0-6.934,1.263-13.4,3.791-19.4
  c2.528-6,5.988-11.2,10.378-15.6c4.391-4.4,9.581-7.832,15.569-10.301c5.987-2.467,12.443-3.699,19.362-3.699
  s13.372,1.232,19.359,3.699c5.987,2.469,11.175,5.898,15.569,10.301c4.391,4.397,7.815,9.6,10.278,15.6s3.693,12.47,3.693,19.4
  C97.999,147.718,96.768,154.153,94.305,160.085z M77.19,127.628c-1.606-4.051-3.778-7.561-6.522-10.529
  c-2.744-2.968-5.953-5.297-9.631-6.982c-3.678-1.688-7.656-2.531-11.938-2.531s-8.297,0.844-12.041,2.531
  c-3.744,1.687-6.988,4.016-9.731,6.982c-2.743,2.97-4.916,6.479-6.522,10.529c-1.606,4.049-2.406,8.434-2.406,13.156
  c0,4.724,0.8,9.111,2.406,13.164c1.606,4.049,3.778,7.521,6.522,10.424c2.744,2.9,5.988,5.195,9.731,6.883
  c3.743,1.688,7.759,2.531,12.041,2.531s8.259-0.844,11.938-2.531c3.679-1.688,6.888-3.982,9.631-6.883
  c2.743-2.9,4.916-6.375,6.522-10.424c1.604-4.053,2.409-8.439,2.409-13.164C79.598,136.062,78.796,131.677,77.19,127.628z"/>
<path fill="#444444" d="M795.388,192.182v-53.198c0-8.531-1.971-15.102-5.9-19.699c-3.934-4.603-9.1-6.9-15.5-6.9
  c-5.334,0-10,0.47-14,1.4c-4,0.934-7.334,2.199-10,3.799v74.6h-18V95.385l13.801,7.188v-0.4c8.531-3.725,18.465-5.588,29.799-5.588
  c11.332,0,20.434,3.229,27.303,9.682c6.863,6.453,10.301,16.268,10.301,29.438v56.481H795.39v-0.004H795.388z"/>
<polygon fill="#444444" points="583.791,81.093 583.791,192.147 601.791,192.147 601.791,66.579 "/>
<path fill="#444444" d="M352.994,14.836v86.748c-3.066-1.731-6.334-2.966-9.799-3.7c-3.469-0.729-7.4-1.101-11.801-1.101
  c-6.936,0-13.334,1.2-19.199,3.601c-5.869,2.399-10.936,5.771-15.201,10.103c-4.268,4.334-7.6,9.5-10,15.5
  c-2.398,6-3.6,12.531-3.6,19.6c0,6.934,1.236,13.369,3.717,19.299c2.477,5.936,5.893,11.102,10.246,15.5
  c4.354,4.4,9.479,7.869,15.371,10.4c5.893,2.529,12.254,3.801,19.086,3.801c2.412,0,4.656-0.17,6.729-0.5
  c2.074-0.334,4.119-0.734,6.131-1.201c2.008-0.469,4.053-1,6.127-1.6c2.074-0.604,6.633-2.301,6.633-2.301l13.961-6.086V0
  L352.994,14.836z M353.394,172.403c-3.359,1.861-6.518,3.395-9.473,4.588c-2.955,1.195-6.449,1.793-10.48,1.793
  c-4.568,0-8.803-0.861-12.699-2.59c-3.896-1.73-7.256-4.09-10.078-7.078c-2.822-2.99-5.006-6.514-6.551-10.568
  c-1.547-4.053-2.318-8.473-2.318-13.26c0-4.651,0.738-8.904,2.217-12.759s3.594-7.18,6.352-9.974
  c2.756-2.79,5.979-4.982,9.674-6.577c3.693-1.595,7.76-2.395,12.197-2.395c3.762,0,7.256,0.4,10.479,1.197
  c3.229,0.799,6.785,2.525,10.684,5.184v52.439H353.394z"/>
<path fill="#444444" d="M460.333,172.675c-2.049,1.215-4.063,2.256-6.041,3.109c-4.336,1.867-9.033,2.799-14.102,2.799
  c-4.398,0-8.568-0.803-12.5-2.412c-3.932-1.604-7.299-3.818-10.098-6.631c-2.803-2.813-4.969-6.162-6.494-10.051
  c-1.531-3.885-2.104-8.105-1.707-12.662h68.201c0-8.839-1.271-16.444-3.803-22.808c-2.533-6.363-5.801-11.59-9.801-15.678
  s-8.535-7.066-13.6-8.941c-5.068-1.875-10.068-2.816-15-2.816c-6.67,0-12.734,1.17-18.195,3.5c-5.463,2.335-10.119,5.635-13.969,9.9
  c-3.852,4.27-6.854,9.334-9.008,15.198c-2.152,5.868-3.229,12.271-3.229,19.2c0,7.199,1.141,13.869,3.426,20
  c2.281,6.137,5.516,11.438,9.699,15.9c4.182,4.469,9.207,7.934,15.074,10.398c5.867,2.467,12.398,3.701,19.602,3.701
  c7.064,0,13.664-1.172,19.799-3.51c5.121-1.955,10.008-4.555,14.664-7.779L460.333,172.675z M419.892,117.884
  c4.199-3.666,9.299-5.5,15.299-5.5s10.867,1.834,14.602,5.5c3.73,3.668,6.27,8.635,7.604,14.9h-46
  C412.859,126.519,415.693,121.552,419.892,117.884z"/>
<path fill="#444444" d="M596.908,255.698c4.199,2,8.73,3.533,13.604,4.602c4.264,0.938,8.26,1.842,12.014,2.727l15.807-12.744
  c-2.992-1.121-6.125-2.061-9.42-2.783c-4.869-1.064-9.4-2.1-13.6-3.1c-4.201-1-7.701-2.266-10.5-3.801
  c-2.801-1.531-4.201-3.83-4.201-6.898c0-1.602,0.531-3.102,1.602-4.5c1.064-1.4,2.465-2.666,4.199-3.801c1.73-1.131,3.766-2,6.1-2.6
  c2.332-0.602,4.701-0.9,7.1-0.9c4.266,0,8.432,0.434,12.5,1.301c1.6,0.342,3.76,1.055,10.008,3.984
  c6.25,2.93,16.93,6.334,28.078,6.334c5.199,0,10.164-0.633,14.898-1.898c4.734-1.264,8.992-3.166,12.766-5.701
  c3.775-2.531,6.773-5.664,8.998-9.398c2.225-3.729,3.338-8.063,3.338-13c0-5.729-1.4-10.301-4.201-13.697
  c-2.768-3.363-6.223-6.006-10.361-7.936c2.854-1.818,5.482-3.914,7.867-6.303c4.395-4.4,7.814-9.564,10.277-15.5
  c2.463-5.932,3.693-12.365,3.693-19.298c0-6.934-1.23-13.4-3.693-19.4s-5.887-11.2-10.277-15.6
  c-4.395-4.4-9.582-7.832-15.566-10.301c-5.986-2.467-12.439-3.699-19.359-3.699c-6.918,0-13.375,1.232-19.361,3.699
  c-5.988,2.469-11.178,5.898-15.568,10.301c-4.391,4.397-7.852,9.6-10.379,15.6s-3.791,12.469-3.791,19.4
  c0,6.933,1.264,13.367,3.791,19.298c2.527,5.936,5.988,11.1,10.379,15.5s9.58,7.834,15.568,10.301
  c2.455,1.012,4.996,1.805,7.609,2.4c2.152,0.713,4.373,1.33,6.676,1.834c4.865,1.068,9.4,2.1,13.6,3.1
  c4.201,1,7.701,2.234,10.5,3.699c2.801,1.469,4.201,3.602,4.201,6.4c0,2.27-0.568,4.301-1.701,6.1c-1.133,1.801-2.668,3.301-4.6,4.5
  c-1.934,1.201-4.1,2.135-6.5,2.801c-2.4,0.668-4.869,1-7.4,1c-4.668,0-9.299-0.699-13.898-2.1c-2.063-0.627-4.412-1.225-6.65-2.279
  c-2.238-1.053-9.09-4.08-14.135-5.242c-5.801-1.33-11.301-2-16.5-2c-5.064,0-9.898,0.734-14.51,2.201
  c-4.604,1.469-8.662,3.5-12.166,6.102c-3.506,2.602-6.303,5.602-8.391,9c-2.09,3.398-3.133,7.033-3.133,10.898
  c0,5.602,1.398,10.068,4.199,13.4C589.208,251.034,592.708,253.698,596.908,255.698z M690.138,164.372
  c-2.744,2.896-5.953,5.191-9.633,6.881c-3.678,1.688-7.656,2.531-11.938,2.531c-4.283,0-8.297-0.846-12.039-2.531
  c-3.744-1.689-6.988-3.98-9.732-6.881c-2.744-2.902-4.916-6.375-6.521-10.426c-1.605-4.053-2.406-8.439-2.406-13.163
  c0-4.725,0.801-9.107,2.406-13.156c1.605-4.051,3.777-7.562,6.521-10.529s5.988-5.297,9.732-6.982
  c3.742-1.688,7.758-2.531,12.039-2.531s8.26,0.844,11.938,2.531c3.68,1.688,6.889,4.016,9.633,6.982
  c2.742,2.971,4.914,6.479,6.521,10.529c1.605,4.049,2.408,8.435,2.408,13.156c0,4.723-0.803,9.11-2.408,13.163
  C695.054,157.997,692.88,161.469,690.138,164.372z"/>
<polygon fill="#444444" points="194.289,108.757 182.323,96.791 146.798,132.784 108.226,93.613 108.226,117.275 134.997,144.585
  76.461,204.827 76.461,229.272 146.798,156.384 184.559,196.915 184.559,171.755 158.798,144.585 "/>
<polygon fill="#444444" points="249.533,88.093 249.533,162.673 203.053,116.195 190.246,129.001 249.533,188.13 249.533,284.481
  267.533,269.968 267.533,73.579 "/>
</svg>
